<?xml version="1.0" standalone="no"?>
<!DOCTYPE svg PUBLIC "-//W3C//DTD SVG 20010904//EN"
 "http://www.w3.org/TR/2001/REC-SVG-20010904/DTD/svg10.dtd">
<svg version="1.0" xmlns="http://www.w3.org/2000/svg"
 width="698.000000pt" height="465.000000pt" viewBox="0 0 698.000000 465.000000"
 preserveAspectRatio="xMidYMid meet">

<g transform="translate(0.000000,465.000000) scale(0.100000,-0.100000)"
fill="#000000" stroke="none">
<path d="M1390 2780 c-13 -8 -17 -27 -19 -80 -1 -18 -11 -31 -36 -44 -22 -12
-38 -31 -45 -52 -11 -32 -15 -34 -55 -34 -50 0 -75 -21 -55 -45 8 -9 30 -15
57 -15 l44 0 -3 -47 -3 -48 -50 -5 c-42 -4 -50 -8 -50 -25 0 -17 8 -21 50 -25
l50 -5 0 -40 0 -40 -50 -5 c-42 -4 -50 -8 -50 -25 0 -17 8 -21 50 -25 l50 -5
3 -47 3 -48 -44 0 c-27 0 -49 -6 -57 -15 -20 -24 5 -45 55 -45 41 0 44 -2 55
-35 8 -26 23 -41 51 -56 38 -19 40 -22 38 -65 -3 -50 13 -69 42 -53 12 6 19
24 21 57 l3 47 55 0 55 0 3 -45 c6 -86 49 -92 54 -7 l3 52 35 0 c35 0 35 -1
38 -47 6 -91 62 -88 62 4 l0 49 43 -3 42 -3 3 -52 c5 -85 62 -82 62 3 0 40 3
45 33 57 37 16 62 42 71 75 6 18 14 22 50 22 51 0 76 21 56 45 -8 9 -30 15
-56 15 l-44 0 0 49 0 50 53 3 c44 3 52 6 52 23 0 17 -8 21 -50 25 l-50 5 -3
42 -3 42 53 3 c45 3 53 6 53 23 0 17 -8 21 -50 25 l-50 5 -3 48 -3 47 44 0
c27 0 49 6 57 15 20 24 -5 45 -54 45 -37 0 -43 4 -61 37 -12 24 -34 45 -57 56
-35 16 -38 20 -38 61 0 85 -57 88 -62 3 l-3 -52 -42 -3 -43 -3 0 49 c0 90 -57
98 -62 9 l-3 -52 -35 0 -35 0 -3 52 c-3 50 -16 69 -40 54 -6 -3 -12 -29 -14
-56 l-3 -50 -55 0 -55 0 -3 47 c-3 50 -25 75 -52 58z m538 -182 c19 -19 17
-551 -2 -567 -9 -8 -95 -11 -292 -9 l-279 3 -3 284 c-2 221 1 286 10 293 22
13 552 10 566 -4z"/>
<path d="M1543 2519 c-35 -10 -80 -58 -89 -96 -4 -14 -1 -42 5 -64 17 -57 48
-69 174 -69 88 0 106 -3 120 -18 29 -32 21 -69 -20 -91 -33 -17 -223 -15 -223
3 0 7 -7 19 -15 26 -12 10 -18 10 -30 0 -22 -18 -18 -56 7 -80 19 -18 35 -20
135 -20 74 0 125 5 147 14 79 33 102 126 47 188 l-29 33 -122 3 c-118 4 -121
4 -131 29 -11 28 0 54 33 77 17 12 48 16 119 16 93 0 96 -1 107 -26 18 -38 56
-30 60 12 2 25 -3 37 -24 53 -24 19 -39 21 -133 20 -58 0 -120 -5 -138 -10z"/>
<path d="M2365 2569 c-17 -4 -44 -22 -60 -39 -24 -25 -30 -40 -30 -76 0 -40 5
-50 37 -79 22 -21 59 -41 93 -51 84 -24 115 -62 79 -98 -35 -36 -112 -27 -135
15 -7 13 -21 19 -44 19 -47 0 -47 -27 -1 -77 32 -35 38 -37 104 -41 59 -4 77
-1 105 17 40 25 57 58 57 112 0 55 -39 91 -133 121 -60 19 -73 28 -81 50 -22
62 69 94 120 43 31 -31 84 -35 84 -6 0 30 -48 79 -88 91 -43 12 -66 12 -107
-1z"/>
<path d="M5763 2569 c-49 -14 -83 -62 -83 -116 0 -39 5 -50 34 -78 20 -18 58
-39 92 -50 69 -21 94 -40 94 -70 0 -32 -26 -50 -72 -50 -31 0 -45 7 -64 28
-17 20 -32 27 -59 27 -40 0 -44 -11 -15 -57 29 -49 71 -66 151 -61 55 3 73 8
94 28 36 34 49 90 31 133 -17 43 -43 61 -123 88 -79 26 -104 56 -79 94 12 19
25 25 50 25 22 0 45 -9 64 -25 17 -14 42 -25 56 -25 61 0 4 100 -65 114 -40 8
-66 7 -106 -5z"/>
<path d="M2640 2354 l0 -215 33 3 32 3 5 135 5 135 50 -95 c70 -132 78 -132
147 2 l53 103 3 -142 3 -143 34 0 35 0 0 216 0 215 -42 -3 -42 -3 -55 -112
c-31 -62 -58 -113 -61 -113 -3 0 -32 52 -65 115 l-60 115 -37 0 -38 0 0 -216z"/>
<path d="M3235 2558 c-36 -104 -125 -389 -125 -402 0 -14 8 -17 37 -14 33 3
37 7 47 43 l12 40 81 3 81 3 13 -43 c13 -40 17 -43 52 -46 23 -2 37 1 37 8 0
7 -30 104 -66 216 l-66 204 -49 0 c-31 0 -51 -5 -54 -12z m83 -163 c12 -41 22
-79 22 -85 0 -11 -97 -14 -103 -2 -6 10 42 162 51 162 5 0 18 -34 30 -75z"/>
<path d="M3530 2354 l0 -215 38 3 37 3 5 80 c5 72 7 80 27 83 27 4 35 -6 84
-95 37 -68 42 -73 73 -73 18 0 35 2 38 5 3 3 -14 41 -36 85 l-41 80 23 15 c54
39 70 131 32 185 -35 49 -67 60 -180 60 l-100 0 0 -216z m205 126 c46 -51 6
-110 -76 -110 l-49 0 0 65 0 65 53 0 c41 0 58 -5 72 -20z"/>
<path d="M3873 2538 c2 -33 3 -33 59 -36 l58 -3 2 -177 3 -177 35 0 35 0 3
177 2 177 58 3 c56 3 57 3 60 36 l3 32 -160 0 -161 0 3 -32z"/>
<path d="M4250 2356 l0 -216 98 1 c112 0 157 13 186 52 28 38 28 106 0 144
-19 26 -20 32 -8 54 24 43 18 105 -15 141 l-29 33 -116 3 -116 4 0 -216z m206
119 c13 -21 15 -31 6 -50 -13 -28 -42 -38 -98 -33 l-39 3 -3 53 -3 52 60 0
c54 0 62 -3 77 -25z m6 -172 c10 -9 18 -27 18 -39 0 -36 -39 -56 -102 -52
l-53 3 -3 53 -3 52 62 0 c44 0 68 -5 81 -17z"/>
<path d="M4580 2565 c0 -2 32 -64 70 -138 69 -132 70 -135 70 -210 l0 -77 35
0 35 0 0 80 c0 79 0 80 71 215 l71 135 -44 0 -43 0 -33 -74 c-56 -124 -53
-124 -106 -18 l-46 92 -40 0 c-22 0 -40 -2 -40 -5z"/>
<path d="M4972 2538 c3 -33 4 -33 60 -36 l58 -3 2 -177 3 -177 35 0 35 0 0
175 0 175 63 3 62 3 0 34 0 35 -161 0 -160 0 3 -32z"/>
<path d="M5355 2357 l0 -212 130 0 130 0 0 30 0 30 -92 3 -93 3 0 54 0 55 80
0 80 0 0 35 0 35 -80 0 -80 0 0 55 0 54 93 3 92 3 3 33 3 32 -133 0 -133 0 0
-213z"/>
</g>
</svg>
